<mxfile host="65bd71144e">
    <diagram id="tcandf9JWFhEh6gt20hR" name="Page-1">
        <mxGraphModel dx="889" dy="512" grid="1" gridSize="10" guides="1" tooltips="1" connect="1" arrows="1" fold="1" page="1" pageScale="1" pageWidth="850" pageHeight="1100" background="#ffffff" math="0" shadow="0">
            <root>
                <mxCell id="0"/>
                <mxCell id="1" parent="0"/>
                <mxCell id="2" value="host" style="rounded=0;whiteSpace=wrap;html=1;fillColor=#f5f5f5;fontColor=#333333;strokeColor=#666666;verticalAlign=middle;" vertex="1" parent="1">
                    <mxGeometry x="40" y="135" width="80" height="40" as="geometry"/>
                </mxCell>
                <mxCell id="3" value="melegraf" style="rounded=0;whiteSpace=wrap;html=1;fillColor=#dae8fc;strokeColor=#6c8ebf;verticalAlign=top;fontColor=#000000;" vertex="1" parent="1">
                    <mxGeometry x="200" y="40" width="720" height="230" as="geometry"/>
                </mxCell>
                <mxCell id="4" value="collector 1" style="rounded=0;whiteSpace=wrap;html=1;fillColor=#d5e8d4;strokeColor=#82b366;fontColor=#000000;" vertex="1" parent="1">
                    <mxGeometry x="230" y="99" width="80" height="40" as="geometry"/>
                </mxCell>
                <mxCell id="5" value="aggregator" style="rounded=0;whiteSpace=wrap;html=1;fillColor=#d5e8d4;strokeColor=#82b366;fontColor=#000000;" vertex="1" parent="1">
                    <mxGeometry x="400" y="99" width="80" height="40" as="geometry"/>
                </mxCell>
                <mxCell id="6" value="modifier" style="rounded=0;whiteSpace=wrap;html=1;fillColor=#d5e8d4;strokeColor=#82b366;fontColor=#000000;" vertex="1" parent="1">
                    <mxGeometry x="630" y="140" width="80" height="40" as="geometry"/>
                </mxCell>
                <mxCell id="7" value="collector 2" style="rounded=0;whiteSpace=wrap;html=1;fillColor=#d5e8d4;strokeColor=#82b366;fontColor=#000000;" vertex="1" parent="1">
                    <mxGeometry x="230" y="180" width="80" height="40" as="geometry"/>
                </mxCell>
                <mxCell id="8" value="reporter" style="rounded=0;whiteSpace=wrap;html=1;fillColor=#d5e8d4;strokeColor=#82b366;fontColor=#000000;" vertex="1" parent="1">
                    <mxGeometry x="820" y="139" width="80" height="40" as="geometry"/>
                </mxCell>
                <mxCell id="15" value="" style="shape=flexArrow;endArrow=classic;html=1;strokeColor=#000000;fontColor=#000000;exitX=1;exitY=0.5;exitDx=0;exitDy=0;endWidth=17;endSize=8.81;width=38;startArrow=none;entryX=0;entryY=0.5;entryDx=0;entryDy=0;" edge="1" parent="1" source="4" target="5">
                    <mxGeometry width="50" height="50" relative="1" as="geometry">
                        <mxPoint x="380" y="170" as="sourcePoint"/>
                        <mxPoint x="460" as="targetPoint"/>
                    </mxGeometry>
                </mxCell>
                <mxCell id="42" value="sink database" style="shape=cylinder3;whiteSpace=wrap;html=1;boundedLbl=1;backgroundOutline=1;size=15;fillColor=#ffe6cc;strokeColor=#d79b00;fontColor=#000000;" vertex="1" parent="1">
                    <mxGeometry x="1000" y="119" width="120" height="80" as="geometry"/>
                </mxCell>
                <mxCell id="46" value="" style="shape=flexArrow;endArrow=classic;html=1;strokeColor=#000000;fontColor=#000000;exitX=1;exitY=0.5;exitDx=0;exitDy=0;endWidth=17;endSize=8.81;width=38;startArrow=none;entryX=0;entryY=0.75;entryDx=0;entryDy=0;" edge="1" parent="1" source="7" target="6">
                    <mxGeometry width="50" height="50" relative="1" as="geometry">
                        <mxPoint x="320" y="129" as="sourcePoint"/>
                        <mxPoint x="480" y="129" as="targetPoint"/>
                    </mxGeometry>
                </mxCell>
                <mxCell id="47" value="" style="shape=flexArrow;endArrow=classic;html=1;strokeColor=#000000;fontColor=#000000;exitX=1;exitY=0.5;exitDx=0;exitDy=0;endWidth=17;endSize=8.81;width=38;startArrow=none;entryX=0;entryY=0.25;entryDx=0;entryDy=0;" edge="1" parent="1" source="5" target="6">
                    <mxGeometry width="50" height="50" relative="1" as="geometry">
                        <mxPoint x="540" y="129" as="sourcePoint"/>
                        <mxPoint x="630" y="129" as="targetPoint"/>
                    </mxGeometry>
                </mxCell>
                <mxCell id="48" value="" style="shape=flexArrow;endArrow=classic;html=1;strokeColor=#000000;fontColor=#000000;exitX=1;exitY=0.5;exitDx=0;exitDy=0;endWidth=17;endSize=8.81;width=38;startArrow=none;entryX=0;entryY=0.5;entryDx=0;entryDy=0;" edge="1" parent="1" source="6" target="8">
                    <mxGeometry width="50" height="50" relative="1" as="geometry">
                        <mxPoint x="720" y="220" as="sourcePoint"/>
                        <mxPoint x="810" y="220" as="targetPoint"/>
                    </mxGeometry>
                </mxCell>
                <mxCell id="50" value="" style="endArrow=classic;html=1;strokeColor=#000000;fontColor=#000000;exitX=1;exitY=0.5;exitDx=0;exitDy=0;entryX=0;entryY=0.5;entryDx=0;entryDy=0;" edge="1" parent="1" source="2" target="4">
                    <mxGeometry width="50" height="50" relative="1" as="geometry">
                        <mxPoint x="430" y="236" as="sourcePoint"/>
                        <mxPoint x="480" y="186" as="targetPoint"/>
                    </mxGeometry>
                </mxCell>
                <mxCell id="51" value="" style="endArrow=classic;html=1;strokeColor=#000000;fontColor=#000000;exitX=1;exitY=0.5;exitDx=0;exitDy=0;entryX=0;entryY=0.5;entryDx=0;entryDy=0;" edge="1" parent="1" source="2" target="7">
                    <mxGeometry width="50" height="50" relative="1" as="geometry">
                        <mxPoint x="430" y="236" as="sourcePoint"/>
                        <mxPoint x="480" y="186" as="targetPoint"/>
                    </mxGeometry>
                </mxCell>
                <mxCell id="52" value="metrics A" style="text;html=1;strokeColor=none;fillColor=none;align=center;verticalAlign=middle;whiteSpace=wrap;rounded=0;fontColor=#000000;" vertex="1" parent="1">
                    <mxGeometry x="140" y="105" width="60" height="30" as="geometry"/>
                </mxCell>
                <mxCell id="53" value="metrics B" style="text;html=1;strokeColor=none;fillColor=none;align=center;verticalAlign=middle;whiteSpace=wrap;rounded=0;fontColor=#000000;" vertex="1" parent="1">
                    <mxGeometry x="140" y="175" width="60" height="30" as="geometry"/>
                </mxCell>
                <mxCell id="54" value="metrics A" style="text;html=1;strokeColor=none;fillColor=none;align=center;verticalAlign=middle;whiteSpace=wrap;rounded=0;fontColor=#000000;" vertex="1" parent="1">
                    <mxGeometry x="310" y="104" width="60" height="30" as="geometry"/>
                </mxCell>
                <mxCell id="56" value="metrics B" style="text;html=1;strokeColor=none;fillColor=none;align=center;verticalAlign=middle;whiteSpace=wrap;rounded=0;fontColor=#000000;" vertex="1" parent="1">
                    <mxGeometry x="431" y="172" width="60" height="30" as="geometry"/>
                </mxCell>
                <mxCell id="58" value="metrics A moving average" style="text;html=1;strokeColor=none;fillColor=none;align=center;verticalAlign=middle;whiteSpace=wrap;rounded=0;fontColor=#000000;" vertex="1" parent="1">
                    <mxGeometry x="519" y="120" width="90" height="30" as="geometry"/>
                </mxCell>
                <mxCell id="60" value="metrics tagged hostname" style="text;html=1;strokeColor=none;fillColor=none;align=center;verticalAlign=middle;whiteSpace=wrap;rounded=0;fontColor=#000000;" vertex="1" parent="1">
                    <mxGeometry x="710" y="146" width="90" height="30" as="geometry"/>
                </mxCell>
                <mxCell id="63" value="" style="endArrow=classic;html=1;strokeColor=#000000;fontColor=#000000;exitX=1;exitY=0.5;exitDx=0;exitDy=0;" edge="1" parent="1" source="8" target="42">
                    <mxGeometry width="50" height="50" relative="1" as="geometry">
                        <mxPoint x="790" y="296" as="sourcePoint"/>
                        <mxPoint x="840" y="246" as="targetPoint"/>
                    </mxGeometry>
                </mxCell>
                <mxCell id="64" value="metrics tagged hostname" style="text;html=1;strokeColor=none;fillColor=none;align=center;verticalAlign=middle;whiteSpace=wrap;rounded=0;fontColor=#000000;" vertex="1" parent="1">
                    <mxGeometry x="900" y="143" width="90" height="30" as="geometry"/>
                </mxCell>
            </root>
        </mxGraphModel>
    </diagram>
</mxfile>